<svg width="30" height="30" viewBox="0 0 30 30" fill="none" xmlns="http://www.w3.org/2000/svg">
<path d="M28.7906 6.83439L23.1656 1.20939C23.078 1.1225 22.9741 1.05376 22.8599 1.00711C22.7457 0.960451 22.6234 0.936802 22.5 0.937516H20.625V8.43752C20.625 8.9348 20.4275 9.41171 20.0758 9.76334C19.7242 10.115 19.2473 10.3125 18.75 10.3125H11.25C10.7527 10.3125 10.2758 10.115 9.92418 9.76334C9.57254 9.41171 9.375 8.9348 9.375 8.43752V0.937516H3.75C3.00408 0.937516 2.28871 1.23383 1.76126 1.76128C1.23382 2.28872 0.9375 3.00409 0.9375 3.75002V26.25C0.9375 26.9959 1.23382 27.7113 1.76126 28.2388C2.28871 28.7662 3.00408 29.0625 3.75 29.0625H5.625V20.625C5.625 19.8791 5.92132 19.1637 6.44876 18.6363C6.97621 18.1088 7.69158 17.8125 8.4375 17.8125H21.5625C22.3084 17.8125 23.0238 18.1088 23.5512 18.6363C24.0787 19.1637 24.375 19.8791 24.375 20.625V29.0625H26.25C26.9959 29.0625 27.7113 28.7662 28.2387 28.2388C28.7662 27.7113 29.0625 26.9959 29.0625 26.25V7.50002C29.0632 7.37663 29.0396 7.25433 28.9929 7.1401C28.9463 7.02588 28.8775 6.92199 28.7906 6.83439Z" fill="white"/>
<path d="M11.25 0.9375H18.75V8.4375H11.25V0.9375Z" fill="white"/>
<path d="M21.5625 19.6875H8.4375C8.18886 19.6875 7.9504 19.7863 7.77459 19.9621C7.59877 20.1379 7.5 20.3764 7.5 20.625V29.0625H22.5V20.625C22.5 20.3764 22.4012 20.1379 22.2254 19.9621C22.0496 19.7863 21.8111 19.6875 21.5625 19.6875Z" fill="white"/>
</svg>
