<svg width="43" height="43" viewBox="0 0 43 43" fill="none" xmlns="http://www.w3.org/2000/svg">
<g clip-path="url(#clip0_1463_2843)">
<mask id="mask0_1463_2843" style="mask-type:luminance" maskUnits="userSpaceOnUse" x="-1" y="-1" width="44" height="44">
<path d="M-0.000488281 -0.00585938H42.9637V42.9583H-0.000488281V-0.00585938Z" fill="white"/>
</mask>
<g mask="url(#mask0_1463_2843)">
<path fill-rule="evenodd" clip-rule="evenodd" d="M29.866 17.1798C29.9949 18.531 30.0744 19.9553 30.0744 21.4762C30.0744 22.0459 29.848 22.5924 29.4452 22.9952C29.0424 23.398 28.4959 23.6244 27.9262 23.6244C27.3565 23.6244 26.81 23.398 26.4072 22.9952C26.0044 22.5924 25.778 22.0459 25.778 21.4762C25.778 19.9445 25.6942 18.516 25.5524 17.1798H17.3828C17.0842 20.0361 17.0814 22.9157 17.3742 25.7726H21.4816C22.0513 25.7726 22.5978 25.999 23.0006 26.4018C23.4034 26.8046 23.6298 27.3511 23.6298 27.9208C23.6298 28.4905 23.4034 29.037 23.0006 29.4398C22.5978 29.8426 22.0513 30.069 21.4816 30.069H18.0788C19.0863 34.5373 20.661 37.3944 21.4837 38.6619C21.4837 38.6619 23.1787 38.6898 23.473 38.6662C24.0403 38.6294 24.5993 38.8172 25.0293 39.1888C25.4594 39.5607 25.726 40.0866 25.7715 40.6533C25.813 41.2212 25.6272 41.7823 25.2549 42.2135C24.8826 42.6444 24.3546 42.9102 23.7866 42.9518C23.5847 42.9669 21.4816 42.9583 21.4816 42.9583C9.63637 42.9583 -0.000488281 33.3214 -0.000488281 21.4762C-0.000488281 9.62885 9.63637 -0.00585938 21.4816 -0.00585938C33.3268 -0.00585938 42.9637 9.62885 42.9637 21.4762C42.9637 22.2904 42.8863 23.0852 42.7939 23.8736C42.7087 24.4236 42.4135 24.9189 41.9705 25.2558C41.5276 25.5924 40.9712 25.7445 40.4187 25.6796C39.8659 25.6147 39.3598 25.3383 39.0069 24.9082C38.6537 24.4781 38.4812 23.9277 38.5255 23.3731C38.6006 22.7479 38.6672 22.1207 38.6672 21.4762C38.6672 19.9897 38.4567 18.5546 38.1023 17.1798H29.866ZM21.4558 4.36789C20.6266 5.6697 19.0928 8.51608 18.096 12.8834H24.8349C23.8339 8.51608 22.2893 5.6697 21.4558 4.36789ZM4.8609 25.7726H13.0649C12.9403 24.4214 12.8608 23.0014 12.8608 21.4848C12.8622 20.0474 12.931 18.6108 13.0671 17.1798H4.8609C4.5043 18.5546 4.29593 19.9897 4.29593 21.4762C4.30127 22.9265 4.49111 24.3703 4.8609 25.7726ZM6.62029 30.069C8.74164 33.7289 12.1337 36.4819 16.1519 37.8047C15.0325 35.3306 14.2049 32.7345 13.6857 30.069H6.62029ZM13.69 12.8834C14.3366 9.65892 15.269 7.07678 16.1605 5.14339C12.1383 6.46523 8.74276 9.22007 6.62029 12.8834H13.69ZM29.2409 12.8834H36.3407C34.2095 9.20282 30.7936 6.43945 26.749 5.12406C27.8819 7.60345 28.7185 10.2079 29.2409 12.8834Z" fill="white"/>
<path d="M32.7019 40.6935L27.2238 28.6414C26.813 27.7379 27.7426 26.8086 28.6461 27.2191L40.698 32.6974C41.5205 33.0712 41.542 34.2319 40.7339 34.636L36.9919 36.5068C36.7839 36.6108 36.6155 36.7795 36.5116 36.9872L34.6405 40.7294C34.2364 41.5375 33.0759 41.516 32.7019 40.6935Z" fill="white"/>
</g>
</g>
<defs>
<clipPath id="clip0_1463_2843">
<rect width="42.9641" height="42.9641" fill="white"/>
</clipPath>
</defs>
</svg>
