<svg width="51" height="51" viewBox="0 0 51 51" fill="none" xmlns="http://www.w3.org/2000/svg">
<path d="M25.363 39.6566C23.6302 40.2948 21.4299 41.1035 18.6467 42.135C13.8938 41.4715 8.89922 39.9251 6.73995 36.3759C7.52657 34.2577 8.21211 32.4017 8.81866 30.7637C12.8876 35.4645 19.9972 38.4498 25.363 39.6566Z" fill="white"/>
<path d="M26.7434 23.8034C22.1185 19.18 16.1635 15.765 13.7357 18.1975C13.2176 18.7156 13.374 18.406 9.77417 28.1756C13.6125 33.7152 23.311 37.5835 30.0668 37.9231C32.0871 37.1634 32.0397 37.1254 32.3509 36.8127C35.3284 33.8352 29.7193 26.7777 26.7434 23.8034ZM30.6734 35.1352C30.4475 35.3642 29.3971 35.3753 27.5316 34.4544C25.5035 33.4514 23.1894 31.7028 21.0159 29.5293C15.9803 24.4937 14.8035 20.4784 15.4101 19.8719C15.5048 19.7771 15.6817 19.7265 15.9329 19.7265C17.2929 19.7265 20.8169 21.2287 25.0691 25.4793C27.2426 27.6528 28.9927 29.9669 29.9957 31.995C30.9166 33.8573 30.9008 34.9093 30.6734 35.1352Z" fill="white"/>
<path d="M14.3091 43.7429C11.5733 44.7602 8.41887 45.9385 4.75586 47.3112C3.80339 47.6618 2.88092 46.7362 3.23316 45.7885C4.15563 43.318 4.98806 41.0845 5.74625 39.0469C7.82812 41.4383 10.9588 42.8884 14.3091 43.7429Z" fill="white"/>
<path d="M31.0683 6.15224C30.3306 6.28176 29.6183 6.39865 29.1349 6.6419C29.8615 7.75708 31.3795 9.1771 30.4523 11.0315C29.623 12.6901 27.8997 12.5921 26.4038 12.6442C27.3216 13.8984 28.383 15.17 27.5648 16.808C26.7166 18.506 24.4926 18.8583 23.18 19.0715C22.7551 19.141 22.3602 18.8567 22.2812 18.4349L21.9937 16.8838C21.9131 16.4526 22.2038 16.0371 22.635 15.9613C23.3821 15.8302 24.0819 15.7165 24.5684 15.4717C23.8386 14.3644 22.327 12.9301 23.2495 11.0836C24.0771 9.42983 25.7989 9.52303 27.2979 9.4709C26.3786 8.21673 25.3187 6.94518 26.1369 5.30717C26.9851 3.61072 29.2107 3.2569 30.5202 3.04366C30.9451 2.97416 31.34 3.25848 31.4174 3.68022L31.7049 5.23135C31.7886 5.66257 31.5011 6.07642 31.0683 6.15224Z" fill="white"/>
<path d="M45.3162 18.8373L46.8673 19.1248C47.2907 19.2037 47.5734 19.5986 47.5039 20.022C47.2907 21.3314 46.9368 23.557 45.2404 24.4052C43.6024 25.2235 42.3308 24.1636 41.0767 23.2443C41.0245 24.7433 41.1177 26.4666 39.4639 27.2927C37.6174 28.2152 36.1832 26.7035 35.0759 25.9738C34.8311 26.4603 34.7173 27.16 34.5862 27.9071C34.5104 28.3399 34.095 28.629 33.6638 28.5484L32.1126 28.261C31.6893 28.182 31.4066 27.7871 31.4761 27.3622C31.6893 26.0512 32.0431 23.8271 33.7396 22.9773C35.376 22.1591 36.6491 23.2206 37.9033 24.1383C37.9554 22.6425 37.8575 20.9176 39.5161 20.0899C41.3705 19.1627 42.7905 20.6806 43.9057 21.4072C44.1489 20.9239 44.2658 20.2115 44.3953 19.4738C44.4696 19.0458 44.8834 18.7583 45.3162 18.8373Z" fill="white"/>
<path d="M40.5947 33.1701H37.5935C37.3313 33.1701 37.1196 32.9585 37.1196 32.6963V31.2746C37.1196 31.0124 37.3313 30.8008 37.5935 30.8008H40.5947C40.8569 30.8008 41.0685 31.0124 41.0685 31.2746V32.6963C41.0685 32.9585 40.8569 33.1701 40.5947 33.1701Z" fill="white"/>
<path d="M43.8929 5.16999L41.77 7.29293C41.5852 7.47774 41.285 7.47774 41.1002 7.29293L40.0956 6.28674C39.9108 6.10194 39.9108 5.80182 40.0956 5.61701L42.2186 3.49408C42.4034 3.30927 42.7035 3.30927 42.8883 3.49408L43.8929 4.49868C44.0777 4.68349 44.0777 4.9836 43.8929 5.16999Z" fill="white"/>
<path d="M19.2705 10.2673H17.8489C17.5867 10.2673 17.375 10.0556 17.375 9.7934V6.79223C17.375 6.53002 17.5867 6.31836 17.8489 6.31836H19.2705C19.5327 6.31836 19.7443 6.53002 19.7443 6.79223V9.7934C19.7443 10.0556 19.5327 10.2673 19.2705 10.2673Z" fill="white"/>
<path d="M30.6166 20.938L29.432 20.1482C29.2092 19.9997 29.1445 19.6996 29.2977 19.4801C32.5216 14.893 38.7372 10.1117 45.3129 9.88106C45.583 9.87316 45.8073 10.0975 45.8073 10.366V11.7892C45.8073 12.0419 45.6083 12.2394 45.3555 12.2504C39.8539 12.4684 34.218 16.6116 31.2532 20.818C31.1063 21.028 30.8283 21.0802 30.6166 20.938Z" fill="white"/>
</svg>
