<svg width="37" height="43" viewBox="0 0 37 43" fill="none" xmlns="http://www.w3.org/2000/svg">
<path d="M33.8828 11.4141H22.7194L25.0471 30.092C25.0883 30.8559 24.8794 31.5752 24.3808 32.1382L20.439 36.6432H33.8828C35.3698 36.6432 36.5795 35.4336 36.5795 33.9465V14.1707C36.5795 12.6837 35.3698 11.4141 33.8828 11.4141ZM33.8828 21.3619H33.6427C33.1312 23.0029 32.3201 24.2869 31.4772 25.2992C32.1375 25.9029 32.8436 26.3982 33.5457 26.9528C33.9328 27.2627 33.996 27.828 33.6852 28.216C33.3759 28.6035 32.8084 28.6663 32.422 28.3556C31.6592 27.7535 30.9432 27.2495 30.2272 26.5925C29.5112 27.2495 28.8551 27.7535 28.0923 28.3556C27.706 28.6663 27.1385 28.6035 26.8291 28.216C26.5184 27.828 26.5816 27.2627 26.9687 26.9528C27.6707 26.3982 28.3169 25.9029 28.9773 25.2992C28.1343 24.287 27.3831 23.0029 26.8717 21.3619H26.6316C26.1348 21.3619 25.7327 20.9599 25.7327 20.463C25.7327 19.9662 26.1348 19.5641 26.6316 19.5641H29.3283V18.6652C29.3283 18.1683 29.7304 17.7663 30.2272 17.7663C30.7241 17.7663 31.1261 18.1683 31.1261 18.6652V19.5641H33.8828C34.3796 19.5641 34.7817 19.9662 34.7817 20.463C34.7817 20.9599 34.3796 21.3619 33.8828 21.3619Z" fill="white"/>
<path d="M20.4889 3.30782C20.2541 1.42218 18.6426 0 16.7423 0H3.77614C1.69389 0 0 1.69389 0 3.77615V31.6357C0 33.718 1.69389 35.4119 3.77614 35.4119C11.3007 35.4119 16.7138 35.4119 23.6262 35.4119C23.9934 34.9921 24.3012 34.7293 24.3142 34.1814C24.3174 34.044 20.5059 3.4441 20.4889 3.30782ZM15.4355 24.0588C14.7681 24.1962 14.092 23.7629 13.9544 23.0717L13.1499 19.0486H9.59099L8.7865 23.0717C8.65132 23.7527 7.99485 24.2001 7.30533 24.0588C6.62436 23.9224 6.1818 23.2599 6.31825 22.5777L8.83559 9.99051C8.95357 9.40294 9.4699 8.97883 10.0697 8.97883H12.6711C13.2709 8.97883 13.7872 9.40294 13.9052 9.99051L16.4226 22.5777C16.5591 23.2599 16.1166 23.9224 15.4355 24.0588Z" fill="white"/>
<path d="M14.707 37.9277L14.923 39.6548C15.067 40.8114 15.8355 41.9908 17.0996 42.5797C19.4851 39.9537 18.0419 41.5423 21.3254 37.9277H14.707Z" fill="white"/>
</svg>
