<svg width="47" height="47" viewBox="0 0 47 47" fill="none" xmlns="http://www.w3.org/2000/svg">
<path d="M40.7578 24.7604L34.14 18.1426C33.9874 17.9846 33.8048 17.8585 33.603 17.7718C33.4011 17.6851 33.184 17.6395 32.9643 17.6376C32.7447 17.6357 32.5268 17.6775 32.3235 17.7607C32.1202 17.8439 31.9354 17.9667 31.7801 18.1221C31.6248 18.2774 31.5019 18.4622 31.4187 18.6655C31.3355 18.8688 31.2937 19.0867 31.2956 19.3063C31.2975 19.526 31.3431 19.7431 31.4298 19.945C31.5165 20.1468 31.6426 20.3294 31.8006 20.482L37.2487 25.9301L31.8006 31.3782C31.6426 31.5308 31.5165 31.7134 31.4298 31.9152C31.3431 32.1171 31.2975 32.3342 31.2956 32.5538C31.2937 32.7735 31.3355 32.9914 31.4187 33.1947C31.5019 33.398 31.6248 33.5827 31.7801 33.7381C31.9354 33.8934 32.1202 34.0163 32.3235 34.0995C32.5268 34.1826 32.7447 34.2245 32.9643 34.2226C33.184 34.2207 33.4011 34.175 33.603 34.0883C33.8048 34.0016 33.9874 33.8756 34.14 33.7176L40.7578 27.0998C41.068 26.7895 41.2422 26.3688 41.2422 25.9301C41.2422 25.4914 41.068 25.0706 40.7578 24.7604Z" fill="white"/>
<path d="M11.9466 33.7176C12.0992 33.8756 12.2818 34.0016 12.4836 34.0883C12.6855 34.175 12.9026 34.2207 13.1223 34.2226C13.3419 34.2245 13.5598 34.1826 13.7631 34.0995C13.9664 34.0163 14.1512 33.8934 14.3065 33.7381C14.4619 33.5827 14.5847 33.398 14.6679 33.1947C14.7511 32.9914 14.7929 32.7735 14.791 32.5538C14.7891 32.3342 14.7435 32.1171 14.6568 31.9152C14.5701 31.7134 14.444 31.5308 14.286 31.3782L8.8379 25.9301L14.286 20.482C14.444 20.3294 14.5701 20.1468 14.6568 19.945C14.7435 19.7431 14.7891 19.526 14.791 19.3063C14.7929 19.0867 14.7511 18.8688 14.6679 18.6655C14.5847 18.4622 14.4619 18.2774 14.3065 18.1221C14.1512 17.9667 13.9664 17.8439 13.7631 17.7607C13.5598 17.6775 13.3419 17.6357 13.1223 17.6376C12.9026 17.6395 12.6855 17.6851 12.4836 17.7718C12.2818 17.8585 12.0992 17.9846 11.9466 18.1426L5.32882 24.7604C5.01866 25.0706 4.84442 25.4914 4.84442 25.9301C4.84442 26.3688 5.01866 26.7895 5.32882 27.0998L11.9466 33.7176Z" fill="white"/>
<path d="M21.3244 37.9639L27.9422 14.8016C28.0627 14.3799 28.0108 13.9277 27.798 13.5442C27.5852 13.1608 27.2288 12.8775 26.8073 12.7567C26.659 12.7158 26.5061 12.6946 26.3523 12.6938C25.9927 12.6941 25.6431 12.8115 25.3562 13.0282C25.0693 13.2449 24.8609 13.5492 24.7624 13.895L18.1446 37.0572C18.0756 37.2688 18.05 37.492 18.0693 37.7137C18.0886 37.9353 18.1524 38.1508 18.2569 38.3472C18.3614 38.5436 18.5044 38.7169 18.6774 38.8568C18.8504 38.9967 19.0499 39.1002 19.2639 39.1612C19.4778 39.2222 19.7019 39.2394 19.9226 39.2118C20.1434 39.1843 20.3563 39.1124 20.5487 39.0007C20.7411 38.8889 20.9089 38.7394 21.0422 38.5613C21.1755 38.3832 21.2715 38.18 21.3244 37.9639Z" fill="white"/>
</svg>
